# xmcd
#
# Track frame offsets: 
#        150
#        15300
#        29114
#        45663
#        63498
#        80868
#        104316
#        118818
#        132783
#        147437
#        161704
#        177694
#        191684
#        215536
#        231772
#        244818
#        256179
#        272545
#        288922
#        309236
#        332613
#
# Disc length: 4689 seconds
#
# Revision: 0
# Processed by: cddbd v1.5.2PL0 Copyright (c) Steve Scherf et al.
# Submitted via: ExactAudioCopyFreeDBPlugin 1.0
#
DISCID=38124f15
DTITLE=Various Artist - Music For Cruizin' - Country To Coast - CD 1
DYEAR=2017
DGENRE=Pop
TTITLE0=Lee Kernaghan - The Outback Club
TTITLE1=Adam Harvey feat. Guy Sebastian - Stuck In The Middle
TTITLE2=Damien Leith feat. The McClymonts - Blue Bayou
TTITLE3=Anne Murray - Secret Love
TTITLE4=Alan Jackson Duet with Jimmy Buffett - It's Five O'Clock Somew
TTITLE4=here
TTITLE5=Brad Paisley - This Is Country Music
TTITLE6=Troy Cassar-Daley and Adam Harvey - Lights On The Hill
TTITLE7=Mickey Gilley - You Don't Know Me
TTITLE8=Jessica Simpson - Take My Breath Away
TTITLE9=Eddie Rabbitt - I Love A Rainy Night
TTITLE10=Willie Nelson - Always On My Mind
TTITLE11=Slim Dusty - Charleville
TTITLE12=The Doobie Brothers - Clear As The Driven Snow
TTITLE13=Jose Feliciano - Light My Fire
TTITLE14=Brooks and Dunn - Whiskey Under The Bridge
TTITLE15=The Byrds - Mr. Tambourine Man
TTITLE16=The Proclaimers - I'm Gonna Be (500 Miles)
TTITLE17=Eurythmics - Sweet Dreams (Are Made Of This)
TTITLE18=Steve Earle - Copperhead Road
TTITLE19=John Denver - Sunshine On My Shoulders
TTITLE20=Jeff Buckley - Hallelujah
EXTD=
EXTT0=
EXTT1=
EXTT2=
EXTT3=
EXTT4=
EXTT5=
EXTT6=
EXTT7=
EXTT8=
EXTT9=
EXTT10=
EXTT11=
EXTT12=
EXTT13=
EXTT14=
EXTT15=
EXTT16=
EXTT17=
EXTT18=
EXTT19=
EXTT20=
PLAYORDER=
